<svg xmlns="http://www.w3.org/2000/svg" xmlns:xlink="http://www.w3.org/1999/xlink" contentStyleType="text/css" data-diagram-type="DESCRIPTION" height="721px" preserveAspectRatio="none" style="width:1372px;height:721px;background:#FFFFFF;" version="1.1" viewBox="0 0 1372 721" width="1372px" zoomAndPan="magnify"><?plantuml $version$?><defs/><g><g class="title" data-source-line="8"><text fill="#000000" font-family="sans-serif" font-size="14" font-weight="700" lengthAdjust="spacing" textLength="295.6089" x="472.1956" y="24.9659">Nerve desktop workbench system context</text></g><!--cluster local--><g class="cluster" data-qualified-name="local" data-source-line="12" id="ent0002"><rect fill="none" height="428" rx="2.5" ry="2.5" style="stroke:#181818;stroke-width:1;" width="709" x="522" y="170.0679"/><text fill="#000000" font-family="sans-serif" font-size="14" font-weight="700" lengthAdjust="spacing" textLength="139.9294" x="806.5353" y="187.0339">Desktop workbench</text></g><!--entity user--><g class="entity" data-qualified-name="user" data-source-line="10" id="ent0001"><ellipse cx="1115.0009" cy="52.5679" fill="#F1F1F1" rx="8" ry="8" style="stroke:#181818;stroke-width:0.5;"/><path d="M1115.0009,60.5679 L1115.0009,87.5679 M1102.0009,68.5679 L1128.0009,68.5679 M1115.0009,87.5679 L1102.0009,102.5679 M1115.0009,87.5679 L1128.0009,102.5679" fill="none" style="stroke:#181818;stroke-width:0.5;"/><text fill="#000000" font-family="sans-serif" font-size="14" lengthAdjust="spacing" textLength="72.0017" x="1079" y="119.0339">Nerve user</text></g><!--entity providers--><g class="entity" data-qualified-name="providers" data-source-line="19" id="ent0007"><path d="M15.4919,532.0311 C20.3911,525.6126 27.5476,525.8635 31.6604,532.9712 C34.4346,524.3305 42.2026,523.848 47.4798,530.3576 C53.0373,523.3264 58.8685,524.2123 61.9577,532.6655 C65.2295,523.2872 71.9858,523.7743 77.7877,530.118 C82.7868,523.2164 90.1836,521.5156 94.7732,530.5543 C99.1992,523.187 106.9465,524.1195 110.6047,531.385 C115.8421,524.4359 120.5978,523.3896 126.117,531.0865 C130.7047,523.8546 135.0676,522.6644 140.7628,529.9707 C147.3957,522.5564 152.6128,524.2698 157.6615,531.7661 C160.7166,524.7948 167.9361,522.1399 172.8829,529.798 C178.7925,522.696 183.8465,522.7445 187.9501,531.5126 C192.277,524.1891 197.3895,522.8909 202.8608,530.359 C208.9485,522.6596 217.2407,523.6822 220.8022,533.0194 C223.6889,526.7848 230.1624,524.9404 234.3568,531.6501 C244.0969,533.3589 248.8665,538.6961 243.0392,548.4503 C249.5801,556.6696 246.8261,564.9071 235.9129,566.0652 C231.2505,572.6509 223.6292,572.9256 219.7803,565.1514 C216.6039,572.3463 209.6141,573.6401 205.0291,566.6124 C198.9542,574.8961 192.7469,574.924 186.6888,566.5939 C181.7272,572.1713 177.1181,572.1477 172.9346,565.7037 C168.989,572.595 161.6479,573.2631 157.5594,565.8573 C153.076,573.9169 148.0171,574.8454 141.2978,568.3565 C136.6964,576.7122 129.1401,575.1083 124.8195,568.0561 C120.1804,575.2084 113.3061,572.9253 110.1053,566.4977 C105.7902,574.6674 98.4656,573.317 93.8249,566.8601 C89.2347,574.4069 83.0167,575.1595 77.9564,567.3457 C73.4405,574.3047 66.5835,573.0155 63.8206,565.6194 C58.0405,572.8229 52.5577,572.3196 46.9641,565.3967 C41.9085,573.4914 34.0216,571.7409 29.7245,564.5417 C25.7462,571.005 19.8635,570.3962 16.0694,564.3408 C7.8241,559.6884 7.7546,553.5252 14.3847,547.394 C7.2919,542.516 7.8184,535.845 15.4919,532.0311" fill="#F1F1F1" style="stroke:#181818;stroke-width:0.5;"/><text fill="#000000" font-family="sans-serif" font-size="14" lengthAdjust="spacing" textLength="205.5892" x="21" y="552.5339">Model and credential providers</text></g><!--entity resources--><g class="entity" data-qualified-name="resources" data-source-line="20" id="ent0008"><path d="M271.116,531.7251 C276.767,523.8119 281.7291,525.5258 287.0156,532.1245 C292.7516,525.4226 299.0837,524.2129 304.1241,532.898 C308.8055,523.3482 314.6506,523.2315 321.2991,530.9406 C326.1753,524.1447 331.3946,521.6835 337.3015,529.8373 C341.8814,522.2953 350.919,521.1188 355.7015,529.6046 C360.737,522.8169 368.0904,522.9857 371.66,531.1673 C376.0333,523.2485 384.4946,524.1856 388.7878,531.2587 C393.6597,523.4336 401.0428,523.5262 406.1731,530.9645 C410.7199,522.5875 418.3199,523.3643 422.9493,530.8774 C429.5532,522.1541 435.1354,524.3046 440.7619,531.9415 C445.1042,523.5217 450.6903,524.4653 456.3207,530.5607 C462.107,523.0552 468.8805,524.1153 473.711,531.6648 C478.6381,524.7571 486.3261,524.961 489.7308,533.2677 C494.3478,523.7328 501.0321,523.3656 507.6349,531.2235 C517.2174,532.8042 520.5545,539.5341 515.7297,548.047 C521.3292,556.3835 519.1763,563.1798 509.2499,565.8724 C505.0566,574.335 496.9165,576.1175 490.9602,567.7933 C486.3896,576.0322 479.4931,575.5966 474.4744,568.2679 C469.6359,575.7337 462.1575,577.0734 457.5117,568.0694 C454.2164,577.8547 448.276,579.0856 441.2241,571.6152 C435.5898,579.1472 427.8749,580.2495 423.0452,570.756 C420.8741,580.0341 413.4035,581.8313 407.2039,574.6281 C400.9705,581.8162 395.1035,582.6585 389.9552,573.4842 C385.2668,582.9675 376.9743,581.1902 371.8421,573.9653 C365.1352,580.151 359.8528,580.5089 355.0177,571.8446 C348.6006,579.9453 340.4534,580.022 336.3899,569.4915 C331.6609,576.1702 326.2477,576.6785 321.2444,569.7979 C315.0336,576.7571 307.6061,575.1409 304.094,566.7774 C300.2982,575.6321 292.0184,575.1522 287.4253,567.5868 C281.4467,575.9836 275.1416,575.8916 270.5104,566.3186 C259.1924,565.5083 256.7403,558.536 260.7614,549.0606 C255.4281,539.162 259.424,531.4545 271.116,531.7251" fill="#F1F1F1" style="stroke:#181818;stroke-width:0.5;"/><text fill="#000000" font-family="sans-serif" font-size="14" lengthAdjust="spacing" textLength="224.1812" x="275" y="552.5339">Git remotes and project resources</text></g><!--entity desktop--><g class="entity" data-qualified-name="local.desktop" data-source-line="13" id="ent0003"><rect fill="#F1F1F1" height="77.2038" rx="2.5" ry="2.5" style="stroke:#181818;stroke-width:0.5;" width="164.1854" x="671" y="200.0679"/><text fill="#000000" font-family="sans-serif" font-size="14" lengthAdjust="spacing" textLength="87.8077" x="709.1889" y="225.0339">desktop-shell</text><text fill="#000000" font-family="sans-serif" font-size="14" lengthAdjust="spacing" textLength="144.1854" x="681" y="244.1018">Electron launcher and</text><text fill="#000000" font-family="sans-serif" font-size="14" lengthAdjust="spacing" textLength="134.7915" x="685.697" y="263.1697">local-daemon owner</text></g><!--entity workbench_app--><g class="entity" data-qualified-name="local.workbench_app" data-source-line="14" id="ent0004"><rect fill="#F1F1F1" height="58.1358" rx="2.5" ry="2.5" style="stroke:#181818;stroke-width:0.5;" width="184.1634" x="646" y="518.0679"/><text fill="#000000" font-family="sans-serif" font-size="14" lengthAdjust="spacing" textLength="102.8436" x="686.6599" y="543.0339">workbench-app</text><text fill="#000000" font-family="sans-serif" font-size="14" lengthAdjust="spacing" textLength="164.1634" x="656" y="562.1018">Browser workbench host</text></g><!--entity workbench_server--><g class="entity" data-qualified-name="local.workbench_server" data-source-line="15" id="ent0005"><rect fill="#F1F1F1" height="77.2038" rx="2.5" ry="2.5" style="stroke:#181818;stroke-width:0.5;" width="206.2553" x="560" y="352.0679"/><text fill="#000000" font-family="sans-serif" font-size="14" lengthAdjust="spacing" textLength="118.9435" x="603.6559" y="377.0339">workbench-server</text><text fill="#000000" font-family="sans-serif" font-size="14" lengthAdjust="spacing" textLength="186.2553" x="570" y="396.1018">Local API, protocol, runtime,</text><text fill="#000000" font-family="sans-serif" font-size="14" lengthAdjust="spacing" textLength="127.4275" x="599.4139" y="415.1697">and static web host</text></g><!--entity nerve_home--><g class="entity" data-qualified-name="local.nerve_home" data-source-line="16" id="ent0006"><path d="M880,514.0679 C880,504.0679 991.8846,504.0679 991.8846,504.0679 C991.8846,504.0679 1103.7692,504.0679 1103.7692,514.0679 L1103.7692,580.2717 C1103.7692,590.2717 991.8846,590.2717 991.8846,590.2717 C991.8846,590.2717 880,590.2717 880,580.2717 L880,514.0679" fill="#F1F1F1" style="stroke:#181818;stroke-width:0.5;"/><path d="M880,514.0679 C880,524.0679 991.8846,524.0679 991.8846,524.0679 C991.8846,524.0679 1103.7692,524.0679 1103.7692,514.0679" fill="none" style="stroke:#181818;stroke-width:0.5;"/><text fill="#000000" font-family="sans-serif" font-size="14" lengthAdjust="spacing" textLength="91.3216" x="946.2238" y="543.0339">NERVE_HOME</text><text fill="#000000" font-family="sans-serif" font-size="14" lengthAdjust="spacing" textLength="154.4894" x="914.6399" y="562.1018">File-first source of truth</text><text fill="#000000" font-family="sans-serif" font-size="14" lengthAdjust="spacing" textLength="203.7692" x="890" y="581.1697">SQLite rebuildable index/cache</text></g><g class="link" data-entity-1="ent0001" data-entity-2="ent0003" data-link-type="dependency" id="lnk9"><polygon fill="#181818" points="835.253,202.8035,845.1002,202.9842,839.8586,200.857,841.9858,195.6153,835.253,202.8035" style="stroke:#181818;stroke-width:1;stroke-linejoin:miter;stroke-miterlimit:10;"/><path d="M1078.9666,99.7975 C1022.5441,123.6446 916.4887,168.4691 839.8586,200.857" fill="none" style="stroke:#181818;stroke-width:1;"/><text fill="#000000" font-family="sans-serif" font-size="13" lengthAdjust="spacing" textLength="106.9771" x="979" y="156.9649">launches desktop</text></g><g class="link" data-entity-1="ent0001" data-entity-2="ent0004" data-link-type="dependency" id="lnk10"><polygon fill="#181818" points="815.2288,518.0384,825.0058,519.2262,820.0094,516.5736,822.6621,511.5772,815.2288,518.0384" style="stroke:#181818;stroke-width:1;stroke-linejoin:miter;stroke-miterlimit:10;"/><path d="M1145.7008,123.1999 C1204.635,202.2047 1319.5082,383.4312 1222,486.0679 C1195.103,514.3796 909.4304,497.132 871,504.0679 C852.6515,507.3795 838.0889,511.0338 820.0094,516.5736" fill="none" style="stroke:#181818;stroke-width:1;"/><text fill="#000000" font-family="sans-serif" font-size="13" lengthAdjust="spacing" textLength="116.5191" x="1255" y="319.9649">uses workbench UI</text></g><g class="link" data-entity-1="ent0003" data-entity-2="ent0005" data-link-type="dependency" id="lnk11"><polygon fill="#181818" points="685.5475,351.9888,693.6079,346.3293,688.12,347.7013,686.748,342.2134,685.5475,351.9888" style="stroke:#181818;stroke-width:1;stroke-linejoin:miter;stroke-miterlimit:10;"/><path d="M730.2892,277.4193 C716.5938,300.2449 701.7859,324.9247 688.12,347.7013" fill="none" style="stroke:#181818;stroke-width:1;"/><text fill="#000000" font-family="sans-serif" font-size="13" lengthAdjust="spacing" textLength="168.7141" x="750.172" y="310.9649">owns/spawns local daemon</text><text fill="#000000" font-family="sans-serif" font-size="13" lengthAdjust="spacing" textLength="227.0582" x="721" y="328.6709">or monitors existing/remote daemon</text></g><g class="link" data-entity-1="ent0005" data-entity-2="ent0004" data-link-type="dependency" id="lnk12"><polygon fill="#181818" points="645.5182,539.6021,637.5344,533.8351,640.6253,538.5728,635.8875,541.6637,645.5182,539.6021" style="stroke:#181818;stroke-width:1;stroke-linejoin:miter;stroke-miterlimit:10;"/><path d="M564.4385,429.1979 C558.4762,434.4224 553.2018,440.3491 549,447.0679 C539.8094,461.7641 538.7644,472.0795 549,486.0679 C571.3622,516.6291 604.5093,530.9753 640.6253,538.5728" fill="none" style="stroke:#181818;stroke-width:1;"/><text fill="#000000" font-family="sans-serif" font-size="13" lengthAdjust="spacing" textLength="163.5141" x="551" y="471.9649">serves bundled web assets</text></g><g class="link" data-entity-1="ent0004" data-entity-2="ent0005" data-link-type="dependency" id="lnk13"><polygon fill="#181818" points="735.8042,517.7766,738.6706,508.3541,735.1912,512.8143,730.7309,509.3349,735.8042,517.7766" style="stroke:#181818;stroke-width:1;stroke-linejoin:miter;stroke-miterlimit:10;"/><polygon fill="#181818" points="703.8506,429.1666,706.438,438.6695,707.0103,433.0417,712.6381,433.614,703.8506,429.1666" style="stroke:#181818;stroke-width:1;stroke-linejoin:miter;stroke-miterlimit:10;"/><path d="M735.1912,512.8143 C732.6455,492.2073 727.7778,469.1216 716,447.0679 C712.6736,440.8392 711.6125,438.6859 707.0103,433.0417" fill="none" style="stroke:#181818;stroke-width:1;"/><text fill="#000000" font-family="sans-serif" font-size="13" lengthAdjust="spacing" textLength="185.6922" x="753.7285" y="462.9649">HTTP + Protocol v1 WebSocket</text><text fill="#000000" font-family="sans-serif" font-size="13" lengthAdjust="spacing" textLength="227.1492" x="733" y="480.6709">workspace and conversation streams</text></g><g class="link" data-entity-1="ent0005" data-entity-2="ent0006" data-link-type="dependency" id="lnk14"><polygon fill="#181818" points="990.9895,503.9582,993.7367,494.5002,990.3139,499.004,985.81,495.5812,990.9895,503.9582" style="stroke:#181818;stroke-width:1;stroke-linejoin:miter;stroke-miterlimit:10;"/><path d="M766.1161,398.726 C842.1954,406.1092 937.2722,420.4355 966,447.0679 C981.573,461.505 987.5969,479.0816 990.3139,499.004" fill="none" style="stroke:#181818;stroke-width:1;"/><text fill="#000000" font-family="sans-serif" font-size="13" lengthAdjust="spacing" textLength="227.3052" x="989" y="471.9649">authoritative files + rebuildable index</text></g><g class="link" data-entity-1="ent0005" data-entity-2="ent0007" data-link-type="dependency" id="lnk15"><polygon fill="#181818" points="152.7755,522.4802,162.3397,520.1294,156.7278,519.4176,157.4395,513.8057,152.7755,522.4802" style="stroke:#181818;stroke-width:1;stroke-linejoin:miter;stroke-miterlimit:10;"/><path d="M559.7266,394.8198 C480.9517,400.0595 370.8851,413.4078 280,447.0679 C231.7215,464.9483 186.6131,496.2597 156.7278,519.4176" fill="none" style="stroke:#181818;stroke-width:1;"/><text fill="#000000" font-family="sans-serif" font-size="13" lengthAdjust="spacing" textLength="128.1801" x="282" y="471.9649">model/auth requests</text></g><g class="link" data-entity-1="ent0005" data-entity-2="ent0008" data-link-type="dependency" id="lnk16"><polygon fill="#181818" points="395.7571,522.4092,402.9506,515.6822,397.7073,517.8052,395.5842,512.5619,395.7571,522.4092" style="stroke:#181818;stroke-width:1;stroke-linejoin:miter;stroke-miterlimit:10;"/><path d="M559.7638,402.1863 C522.1522,410.0161 481.04,423.5831 449,447.0679 C422.9932,466.1305 407.325,495.0998 397.7073,517.8052" fill="none" style="stroke:#181818;stroke-width:1;"/><text fill="#000000" font-family="sans-serif" font-size="13" lengthAdjust="spacing" textLength="85.9821" x="451" y="471.9649">Git, files, tools</text></g><g class="legend" data-source-line="32"><rect fill="#DDDDDD" height="90.2717" rx="7.5" ry="7.5" style="stroke:#000000;stroke-width:1;" width="663.1255" x="288.4373" y="612.0679"/><text fill="#000000" font-family="sans-serif" font-size="14" font-weight="700" lengthAdjust="spacing" textLength="89.4316" x="297.0773" y="634.0339">Runtime link</text><text fill="#000000" font-family="sans-serif" font-size="14" font-weight="700" lengthAdjust="spacing" textLength="61.1798" x="553.9482" y="634.0339">Meaning</text><text fill="#000000" font-family="sans-serif" font-size="14" lengthAdjust="spacing" textLength="249.591" x="297.0773" y="653.1018">workbench-app &lt;-&gt; workbench-server</text><text fill="#000000" font-family="sans-serif" font-size="14" lengthAdjust="spacing" textLength="388.9745" x="553.9482" y="653.1018">Local UI API/protocol; server owns workbench stream state</text><line style="stroke:#000000;stroke-width:1;" x1="293.4373" x2="946.5627" y1="619.0679" y2="619.0679"/><line style="stroke:#000000;stroke-width:1;" x1="293.4373" x2="946.5627" y1="638.1358" y2="638.1358"/><line style="stroke:#000000;stroke-width:1;" x1="293.4373" x2="946.5627" y1="657.2038" y2="657.2038"/><line style="stroke:#000000;stroke-width:1;" x1="293.4373" x2="293.4373" y1="619.0679" y2="657.2038"/><line style="stroke:#000000;stroke-width:1;" x1="550.3082" x2="550.3082" y1="619.0679" y2="657.2038"/><line style="stroke:#000000;stroke-width:1;" x1="946.5627" x2="946.5627" y1="619.0679" y2="657.2038"/><text fill="#000000" font-family="sans-serif" font-size="14" lengthAdjust="spacing" textLength="531.1859" x="354.407" y="674.1697">Nerve Protocol v1 supplies strict envelopes, catalog RPC/events, session lifecycle,</text><text fill="#000000" font-family="sans-serif" font-size="14" lengthAdjust="spacing" textLength="483.4182" x="378.2909" y="693.2376">replay from processed cursors, bounded delivery, and snapshot recovery.</text></g><?plantuml-src TLHDSziu3BtpLw2-hbrFh_sQoMxJDZDDcoRfzgAP34t1DjSKeH9K74-x_tqV9KUnjyd5iaZW0NZlGS_QP5UDfM1tqcNIXhEDrkZ6nzOcsv2kRIrR7rUqj47vuCP9qqhacA_oBZ0bTaXTXSEGrhgDNV7J0JKlRHVoDT_ba-1NiG4SEVnmEeWwIKcsrsllDf5LwOKnsMSWVkPqoy3GJPQMjf8s2uvkJRhJpAL1uDnbOwpBacWoX7VAQK9M-p_6Z5tHvDt_WVgm8Cu6-cdeOM2Qx6lETCqXLF4q02L918qTyZYHZNKL-zHPRRd1bMpZll0--HXnB3gpRLl5Fp4n-ZiOQYsQ-_Jnw0QHJu5ecJLLyLFV_Sd5sPJQ95cSX2cbBcRVyBIAQ9Cqs-mTRNdnM8q126Lgc-t2AdZwV7hvz-dDno_dfrLyxmFFbZufl2DTSaoof9owlAxYrTTFFXVT5vqFjLs0Onzhlfix2uxwEh6WtwobOVElCIv8LzFaN6eEXK5oYMiCvZ42kh_rDIVjyyQt-vmFFgDG8vcrpqJ0Fz04PqDRGzhuPanHdsQpjwDzNjwBzo3G67D4EI9nSS0HVJipvXxcE7nW3nbGN-VQMZpsZXfiKKKu4qyFXohndTUCNPiFe-nZp6zuZ_NKNoajkbW7hdivhIfdDSUHhv_eyEFrzGNzGHTxbz3j2_hEYojn6yvLB0be7_hskaX4ai8tCBRcnBRHnxjy41WbB6mXoHU_OH6Ni8wYuc_-U1nfb1n0JN78lC0X-qV7cfyeFmgE95XaEXITKXO9C47W5MESXUGi3Jp-wmrT3hj1mSTDUJzd6ylNxrUvfgCj1PK7JEvN3a73pdqxAsitlz-wLxI_Bquu_5RrxFLBo7sHuIjrA8DsRHiyPa2iXwSPv0TfonmEInbaHPSNVytv5gk2CtXJYox1BzdjNE0fK1Et-CJJCabJc0GZ2fEuBYbyDmK3i0qEG2kaIRjfBxD6s-fQoXOvASVF3HTt5TB-0m00?></g></svg>